<svg width="166" height="166" viewBox="0 0 166 166" fill="none" xmlns="http://www.w3.org/2000/svg">
<path d="M43.5581 16.4419C65.3413 -5.34128 100.659 -5.34128 122.442 16.4419L136 30L149.558 43.5581C171.341 65.3413 171.341 100.659 149.558 122.442L136 136L122.442 149.558C100.659 171.341 65.3413 171.341 43.5581 149.558L30 136L16.4419 122.442C-5.34127 100.659 -5.34127 65.3413 16.4419 43.5581L30 30L43.5581 16.4419Z" fill="#4F45C6"/>
<path fill-rule="evenodd" clip-rule="evenodd" d="M61.0891 50.1028C57.7798 50.1028 55.0972 52.7873 55.0972 56.0988C55.0972 59.4103 57.7798 62.0949 61.0891 62.0949C64.3983 62.0949 67.081 59.4103 67.081 56.0988C67.081 52.7873 64.3983 50.1028 61.0891 50.1028ZM47 56.0988C47 48.3123 53.3079 42 61.0891 42C68.8702 42 75.1781 48.3123 75.1781 56.0988C75.1781 62.0543 71.4882 67.1473 66.2713 69.2133L66.2713 96.7867C66.8665 97.0224 67.4419 97.2976 67.9942 97.6089L78.1952 87.6343L75.8688 84.9477C74.4233 83.2785 74.6038 80.7537 76.2721 79.3071L76.3473 79.2419C78.0171 77.7939 80.5448 77.9746 81.9917 79.6455L83.9652 81.9245L86.1661 79.7235C87.729 78.1607 90.2631 78.1615 91.8249 79.7255L91.8956 79.7962C93.4558 81.3586 93.455 83.8898 91.8936 85.4511L86.614 90.7308C86.6033 90.7415 86.5925 90.7521 86.5817 90.7627L73.6155 103.441C73.9188 104.029 74.1821 104.641 74.4016 105.274C86.8454 105.772 95.2589 103.632 100.574 98.7365C106.032 93.7096 109.211 84.8429 108.813 69.592C103.031 67.8357 98.8219 62.4591 98.8219 56.0988C98.8219 48.3123 105.13 42 112.911 42C120.692 42 127 48.3123 127 56.0988C127 62.4941 122.745 67.8948 116.913 69.6207C117.295 85.6949 114.013 97.3709 106.058 104.698C98.5379 111.625 87.7292 113.828 74.7424 113.394C73.1893 119.491 67.6654 124 61.0891 124C53.3079 124 47 117.688 47 109.901C47 103.115 51.7916 97.4481 58.1741 96.1045L58.1741 69.8955C51.7916 68.5519 47 62.8853 47 56.0988ZM112.911 50.1028C109.602 50.1028 106.919 52.7873 106.919 56.0988C106.919 59.4103 109.602 62.0949 112.911 62.0949C116.22 62.0949 118.903 59.4103 118.903 56.0988C118.903 52.7873 116.22 50.1028 112.911 50.1028ZM61.0891 103.905C57.7798 103.905 55.0972 106.59 55.0972 109.901C55.0972 113.213 57.7798 115.897 61.0891 115.897C64.3983 115.897 67.081 113.213 67.081 109.901C67.081 106.59 64.3983 103.905 61.0891 103.905Z" fill="white"/>
</svg>
